<svg width="495" height="209" viewBox="0 0 495 209"
     xmlns="http://www.w3.org/2000/svg">

  <rect width="495" height="209" rx="6" fill="#161B22" stroke="#30363D" stroke-width="1"/>

  <!-- Title -->
  <text x="20" y="30" fill="#E6EDF3"
        font-size="14" font-weight="600"
        font-family="-apple-system,BlinkMacSystemFont,'Segoe UI',sans-serif">
    GitHub Activity — tanat0
  </text>
  <line x1="20" y1="40" x2="475" y2="40" stroke="#30363D" stroke-width="1"/>

  <!-- Commits -->
  <text x="20" y="65" fill="#8B949E" font-size="12"
        font-family="-apple-system,sans-serif">Total commits (public + private)</text>
  <text x="475" y="65" fill="#58A6FF" font-size="16" font-weight="700"
        font-family="monospace" text-anchor="end">548</text>

  <!-- Repos -->
  <text x="20" y="93" fill="#8B949E" font-size="12"
        font-family="-apple-system,sans-serif">Repositories</text>
  <text x="475" y="93" fill="#E6EDF3" font-size="16" font-weight="700"
        font-family="monospace" text-anchor="end">20</text>
  <text x="475" y="107" fill="#8B949E" font-size="10"
        font-family="monospace" text-anchor="end">2 public · 18 private</text>

  <!-- Member since -->
  <text x="20" y="126" fill="#8B949E" font-size="12"
        font-family="-apple-system,sans-serif">On GitHub since</text>
  <text x="475" y="126" fill="#E6EDF3" font-size="13"
        font-family="monospace" text-anchor="end">2022</text>

  <!-- Languages divider + label -->
  <line x1="20" y1="137" x2="475" y2="137" stroke="#30363D" stroke-width="1"/>
  <text x="20" y="150" fill="#8B949E" font-size="11"
        font-family="-apple-system,sans-serif">Languages · all repos incl. private</text>

  <!-- Language bar -->
  <rect x="20" y="154" width="280" height="8" rx="4" ry="4" fill="#3572A5"/><rect x="300" y="154" width="140" height="8" fill="#3178C6"/><rect x="440" y="154" width="13" height="8" fill="#F1E05A"/><rect x="453" y="154" width="11" height="8" fill="#563D7C"/><rect x="464" y="154" width="4" height="8" fill="#427819"/><rect x="468" y="154" width="3" height="8" rx="4" ry="4" fill="#89E051"/>

  <!-- Language legend -->
  <circle cx="25" cy="180" r="4" fill="#3572A5"/><text x="34" y="184" fill="#8B949E" font-size="11" font-family="monospace">Python 61.7%</text><circle cx="180" cy="180" r="4" fill="#3178C6"/><text x="189" y="184" fill="#8B949E" font-size="11" font-family="monospace">TypeScript 31.0%</text><circle cx="335" cy="180" r="4" fill="#F1E05A"/><text x="344" y="184" fill="#8B949E" font-size="11" font-family="monospace">JavaScript 2.9%</text><circle cx="25" cy="194" r="4" fill="#563D7C"/><text x="34" y="198" fill="#8B949E" font-size="11" font-family="monospace">CSS 2.6%</text><circle cx="180" cy="194" r="4" fill="#427819"/><text x="189" y="198" fill="#8B949E" font-size="11" font-family="monospace">Makefile 1.0%</text><circle cx="335" cy="194" r="4" fill="#89E051"/><text x="344" y="198" fill="#8B949E" font-size="11" font-family="monospace">Shell 0.8%</text>

</svg>