<svg width="495" height="84" viewBox="0 0 495 84"
     xmlns="http://www.w3.org/2000/svg">
  <defs>
    <pattern id="dots" x="0" y="0" width="20" height="20" patternUnits="userSpaceOnUse">
      <circle cx="1.5" cy="1.5" r="1" fill="#27273A" opacity="0.6"/>
    </pattern>
  </defs>

  <rect width="495" height="84" rx="8" fill="#0F0F12"/>
  <rect width="495" height="84" rx="8" fill="url(#dots)"/>
  <rect width="495" height="84" rx="8" fill="none" stroke="#1C1C28" stroke-width="1"/>

  <text x="20" y="16" fill="#64748B" font-size="9.5" letter-spacing="1"
        font-family="-apple-system,sans-serif">LANGUAGES</text>
  <text x="475" y="16" fill="#64748B" font-size="9" text-anchor="end"
        font-family="-apple-system,sans-serif" opacity="0.6">incl. private repos</text>

  <rect x="20" y="28" width="217" height="6" rx="3" fill="#3572A5"/><rect x="237" y="28" width="128" height="6" rx="0" fill="#64748B"/><rect x="365" y="28" width="87" height="6" rx="0" fill="#3178C6"/><rect x="452" y="28" width="8" height="6" rx="0" fill="#563D7C"/><rect x="460" y="28" width="8" height="6" rx="0" fill="#F1E05A"/><rect x="468" y="28" width="5" height="6" rx="3" fill="#E34C26"/>
  <circle cx="24" cy="48" r="3.5" fill="#3572A5"/><text x="33" y="52" fill="#64748B" font-size="10.5" font-family="ui-monospace,'Cascadia Code',monospace">Python <tspan fill="#E2E8F0" font-weight="500">48%</tspan></text><circle cx="179" cy="48" r="3.5" fill="#64748B"/><text x="188" y="52" fill="#64748B" font-size="10.5" font-family="ui-monospace,'Cascadia Code',monospace">Jupyter Notebook <tspan fill="#E2E8F0" font-weight="500">28%</tspan></text><circle cx="334" cy="48" r="3.5" fill="#3178C6"/><text x="343" y="52" fill="#64748B" font-size="10.5" font-family="ui-monospace,'Cascadia Code',monospace">TypeScript <tspan fill="#E2E8F0" font-weight="500">19%</tspan></text><circle cx="24" cy="64" r="3.5" fill="#563D7C"/><text x="33" y="68" fill="#64748B" font-size="10.5" font-family="ui-monospace,'Cascadia Code',monospace">CSS <tspan fill="#E2E8F0" font-weight="500">2%</tspan></text><circle cx="179" cy="64" r="3.5" fill="#F1E05A"/><text x="188" y="68" fill="#64748B" font-size="10.5" font-family="ui-monospace,'Cascadia Code',monospace">JavaScript <tspan fill="#E2E8F0" font-weight="500">2%</tspan></text><circle cx="334" cy="64" r="3.5" fill="#E34C26"/><text x="343" y="68" fill="#64748B" font-size="10.5" font-family="ui-monospace,'Cascadia Code',monospace">HTML <tspan fill="#E2E8F0" font-weight="500">1%</tspan></text>
</svg>